<?xml version="1.0" standalone="no"?>
<!DOCTYPE svg PUBLIC "-//W3C//DTD SVG 20010904//EN"
 "http://www.w3.org/TR/2001/REC-SVG-20010904/DTD/svg10.dtd">
<svg version="1.0" xmlns="http://www.w3.org/2000/svg"
 width="669" height="577" viewBox="0 0 669 577"
 preserveAspectRatio="xMidYMid meet">
<g transform="translate(0, 577) scale(0.1,-0.1)"
fill="#ff3939" stroke="none">
<path d="M2736 5561 c-71 -47 -87 -144 -34 -198 23 -23 24 -29 16 -71 -28
-140 35 -328 166 -496 25 -33 46 -63 46 -67 0 -4 -10 -14 -22 -22 -103 -69
-236 -246 -301 -402 -58 -138 -72 -216 -72 -405 l0 -175 31 -66 32 -66 -42 13
c-158 49 -333 130 -413 191 -107 80 -173 213 -282 563 -62 199 -84 280 -112
413 -26 122 -38 148 -66 131 -28 -17 -70 -101 -83 -168 -25 -125 -20 -158 96
-640 80 -330 154 -515 243 -602 53 -52 149 -118 241 -164 36 -18 67 -34 69
-36 2 -2 -12 -22 -30 -45 -50 -62 -96 -136 -116 -185 -14 -34 -22 -42 -38 -39
-219 50 -284 58 -460 59 -164 0 -185 -2 -236 -22 -121 -48 -320 -210 -520
-424 -185 -197 -214 -232 -242 -289 -70 -144 -77 -328 -11 -304 10 3 42 34 70
68 27 34 106 108 175 165 248 204 507 356 631 372 119 15 268 -13 444 -82 l81
-31 7 -135 c6 -114 41 -362 62 -439 4 -13 2 -23 -3 -23 -5 0 -47 -5 -93 -10
-190 -23 -388 -74 -494 -128 -141 -70 -282 -273 -452 -651 -123 -273 -119
-261 -119 -396 0 -108 3 -125 25 -170 17 -35 31 -50 45 -50 21 0 21 1 91 159
81 184 235 446 347 591 74 96 151 167 207 193 68 30 193 42 323 31 97 -8 303
-53 324 -70 6 -6 25 -34 41 -63 86 -152 262 -347 422 -468 231 -174 485 -261
755 -261 353 0 686 154 956 440 104 111 159 188 295 419 23 39 247 84 420 84
204 0 283 -43 426 -230 138 -181 352 -560 387 -684 12 -46 38 -77 57 -69 25 9
52 76 63 156 13 91 1 194 -28 259 -11 24 -48 106 -81 183 -120 274 -249 491
-352 593 -106 106 -290 166 -660 217 -27 3 -48 9 -48 13 0 4 9 66 20 137 11
72 23 199 26 283 l7 152 46 21 c207 94 432 131 562 93 119 -35 361 -185 560
-348 82 -68 152 -134 217 -209 54 -61 82 -45 82 48 0 115 -44 232 -121 322
-95 110 -306 327 -392 402 -108 94 -215 170 -282 200 -138 61 -393 49 -751
-36 -18 -4 -26 4 -49 49 -27 54 -82 131 -128 179 l-25 26 46 22 c114 55 242
134 299 185 120 109 199 322 313 841 12 55 30 135 41 177 24 96 24 163 0 253
-28 110 -60 160 -98 153 -21 -4 -18 3 -77 -243 -90 -375 -211 -698 -302 -804
-45 -52 -100 -90 -211 -145 -77 -38 -309 -126 -333 -126 -4 0 1 24 13 53 29
72 30 285 3 402 -26 111 -69 224 -116 306 -51 86 -148 209 -194 244 l-35 26
55 72 c129 166 175 282 175 439 0 54 -2 102 -5 107 -3 5 1 15 10 22 46 38 56
112 23 166 -62 101 -208 77 -239 -38 -18 -68 38 -159 98 -159 50 0 33 -209
-25 -324 -31 -61 -75 -124 -153 -219 -4 -4 -33 8 -65 28 -121 73 -312 125
-456 125 -122 0 -299 -47 -408 -109 l-43 -24 -20 24 c-143 181 -201 327 -183
461 6 45 10 49 51 67 34 15 49 30 66 65 19 40 20 50 10 85 -18 57 -71 101
-125 101 -24 0 -54 -8 -71 -19z m815 -3081 c14 -447 3 -1017 -27 -1364 -9
-100 -19 -224 -23 -276 l-7 -95 -7 70 c-40 393 -57 767 -57 1265 0 495 18 890
57 1260 11 111 49 -400 64 -860z"/>
</g>
</svg>
